<?xml version="1.0" encoding="UTF-8"?>
<svg width="35px" height="35px" viewBox="0 0 35 35" version="1.1" xmlns="http://www.w3.org/2000/svg" xmlns:xlink="http://www.w3.org/1999/xlink">
    <!-- Generator: Sketch 61.2 (89653) - https://sketch.com -->
    <title>Cat</title>
    <desc>Created with Sketch.</desc>
    <defs>
        <circle id="path-1" cx="17.5" cy="17.5" r="17.5"></circle>
    </defs>
    <g id="Page-1" stroke="none" stroke-width="1" fill="none" fill-rule="evenodd">
        <g id="8---JumpStory14_Searched-result" transform="translate(-219.000000, -262.000000)">
            <g id="Vectors" transform="translate(216.000000, 259.000000)">
                <g id="Cat" transform="translate(3.000000, 3.000000)">
                    <mask id="mask-2" fill="white">
                        <use xlink:href="#path-1"></use>
                    </mask>
                    <use id="Mask" fill="#F5F5F5" xlink:href="#path-1"></use>
                    <path d="M27.9782353,12.3107139 L25.7703697,12.3107139 C25.5770062,12.3107139 25.4009104,12.4729865 25.4009104,12.6766826 L25.4009104,13.5094775 L19.7819147,13.5094775 C19.7025861,12.468664 18.8776712,11.6666667 17.8864055,11.6666667 C16.8953108,11.6666667 16.070225,12.468664 15.9908964,13.5094775 L10.432423,13.5094775 L10.432423,12.6766826 C10.432423,12.4729865 10.2563271,12.3107139 10.0629637,12.3107139 L7.85509808,12.3107139 C7.66139268,12.3089129 7.5025645,12.4724461 7.5,12.6766826 L7.5,15.0025289 C7.5,15.2062251 7.66190559,15.3537292 7.85509808,15.3537292 L10.0629637,15.3537292 C10.2563271,15.3537292 10.432423,15.2062251 10.432423,15.0025289 L10.432423,14.2471782 L14.3369633,14.2471782 C12.4257252,15.3290551 11.0518358,17.2287785 10.5691964,19.4571892 L9.33276436,19.4571892 C9.24249387,19.4532269 9.15444595,19.488347 9.0893076,19.5544447 C9.02416925,19.6207225 8.98758233,19.7120345 8.98809524,19.8073089 L8.98809524,22.7296553 C8.98689846,22.8270909 9.02245956,22.9209244 9.087256,22.990444 C9.15205243,23.0597836 9.24044227,23.0992261 9.33276436,23.09959 L12.107043,23.09959 C12.1988522,23.0988659 12.2863872,23.0592433 12.3501578,22.9897236 C12.4139285,22.920204 12.4482928,22.8263705 12.4457283,22.7296553 L12.4457283,19.8073089 C12.4476089,19.7127549 12.4122188,19.6214429 12.3481062,19.5551651 C12.2839937,19.4888873 12.1968006,19.4534071 12.107043,19.4571892 L11.2906764,19.4571892 C11.8950442,16.9604254 13.7237053,14.9967656 16.0818507,14.3121953 C16.3422332,15.1284207 17.0681583,15.6784544 17.8857217,15.6788146 C18.7031141,15.6793549 19.4295521,15.1304019 19.6909603,14.3145366 C22.0496187,14.9969458 23.8789637,16.9604254 24.4824766,19.4571892 L23.6657681,19.4571892 C23.4724046,19.4571892 23.30007,19.6036127 23.30007,19.8073089 L23.30007,22.7296553 C23.3074216,22.9367734 23.4691562,23.1004868 23.6657681,23.09959 L26.4400467,23.09959 C26.6358037,23.1001266 26.7961706,22.9358729 26.8014706,22.7296553 L26.8014706,19.8073089 C26.8014706,19.6036127 26.6334102,19.4571892 26.4400467,19.4571892 L25.2029308,19.4571892 C24.7216592,17.2287785 23.3484537,15.3288751 21.4373865,14.2471782 L25.4009104,14.2471782 L25.4009104,15.0025289 C25.4009104,15.2062251 25.5770062,15.3537292 25.7703697,15.3537292 L27.9782353,15.3537292 C28.1715987,15.3537292 28.3333333,15.2062251 28.3333333,15.0025289 L28.3333333,12.6766826 C28.3307688,12.4724461 28.1719407,12.3089129 27.9782353,12.3107139 L27.9782353,12.3107139 Z M9.73214286,14.6160285 L8.20028011,14.6160285 L8.20028011,13.0484146 L9.73214286,13.0484146 L9.73214286,14.6160285 Z M11.7454482,22.3618856 L9.68837535,22.3618856 L9.68837535,20.1948899 L11.7454482,20.1948899 L11.7454482,22.3618856 Z M17.8864055,14.9364313 C17.2225414,14.9364313 16.6843378,14.369648 16.6843378,13.6703092 C16.6843378,12.9709704 17.2225414,12.4040072 17.8864055,12.4040072 C18.5502697,12.4040072 19.0883023,12.9709704 19.0883023,13.6703092 C19.0876184,14.3692879 18.5499278,14.9357108 17.8864055,14.9364313 L17.8864055,14.9364313 Z M26.1011905,22.3618856 L24.0003501,22.3618856 L24.0003501,20.1948899 L26.1011905,20.1948899 L26.1011905,22.3618856 Z M27.6330532,14.6160285 L26.1011905,14.6160285 L26.1011905,13.0484146 L27.6330532,13.0484146 L27.6330532,14.6160285 Z" id="Shape" fill="#4cc9d7" fill-rule="nonzero" mask="url(#mask-2)"></path>
                </g>
            </g>
        </g>
    </g>
</svg>