<?xml version="1.0" encoding="UTF-8"?>
<svg width="35px" height="35px" viewBox="0 0 35 35" version="1.1" xmlns="http://www.w3.org/2000/svg" xmlns:xlink="http://www.w3.org/1999/xlink">
    <!-- Generator: Sketch 61.2 (89653) - https://sketch.com -->
    <title>Cat</title>
    <desc>Created with Sketch.</desc>
    <defs>
        <circle id="path-1" cx="17.5" cy="17.5" r="17.5"></circle>
    </defs>
    <g id="Page-1" stroke="none" stroke-width="1" fill="none" fill-rule="evenodd">
        <g id="8---JumpStory14_Searched-result" transform="translate(-63.000000, -262.000000)">
            <g id="Photos" transform="translate(60.000000, 259.000000)">
                <g id="Cat" transform="translate(3.000000, 3.000000)">
                    <mask id="mask-2" fill="white">
                        <use xlink:href="#path-1"></use>
                    </mask>
                    <use id="Mask" fill="#F5F5F5" xlink:href="#path-1"></use>
                    <g id="camera" mask="url(#mask-2)" fill="#4cc9d7" fill-rule="nonzero">
                        <g transform="translate(9.166667, 10.833333)">
                            <path d="M16.1045131,2.07442597 C15.7719715,1.72604909 15.3127474,1.52019002 14.7901821,1.52019002 L12.1615202,1.52019002 L12.1615202,1.4885194 C12.1615202,1.09263658 12.0031671,0.712589074 11.7339667,0.45922407 C11.4647664,0.190023753 11.1005542,0.0316706255 10.7046714,0.0316706255 L5.95407759,0.0316706255 C5.54235946,0.0316706255 5.17814727,0.190023753 4.90894695,0.45922407 C4.63974663,0.728424386 4.48139351,1.09263658 4.48139351,1.4885194 L4.48139351,1.52019002 L1.8685669,1.52019002 C1.34600158,1.52019002 0.886777514,1.72604909 0.554235946,2.07442597 C0.221694378,2.40696754 1.12516664e-15,2.88202692 1.12516664e-15,3.38875693 L1.12516664e-15,11.2747427 C1.12516664e-15,11.797308 0.205859066,12.2565321 0.554235946,12.5890736 C0.886777514,12.9216152 1.3618369,13.1433096 1.8685669,13.1433096 L14.7901821,13.1433096 C15.3127474,13.1433096 15.7719715,12.9374505 16.1045131,12.5890736 C16.4370546,12.2565321 16.658749,11.7814727 16.658749,11.2747427 L16.658749,3.38875693 C16.658749,2.86619161 16.4528899,2.40696754 16.1045131,2.07442597 Z M15.8353127,11.2747427 L15.8194774,11.2747427 C15.8194774,11.5597783 15.7086302,11.8131433 15.5186065,12.0031671 C15.3285827,12.1931908 15.0752177,12.304038 14.7901821,12.304038 L1.8685669,12.304038 C1.58353127,12.304038 1.33016627,12.1931908 1.14014252,12.0031671 C0.950118765,11.8131433 0.839271576,11.5597783 0.839271576,11.2747427 L0.839271576,3.38875693 C0.839271576,3.1037213 0.950118765,2.85035629 1.14014252,2.66033254 C1.33016627,2.47030879 1.58353127,2.3594616 1.8685669,2.3594616 L4.92478226,2.3594616 C5.16231196,2.3594616 5.35233571,2.16943785 5.35233571,1.93190816 L5.35233571,1.47268409 C5.35233571,1.29849565 5.41567696,1.14014252 5.52652415,1.02929533 C5.63737134,0.918448139 5.79572447,0.855106888 5.96991291,0.855106888 L10.7046714,0.855106888 C10.8788599,0.855106888 11.037213,0.918448139 11.1480602,1.02929533 C11.2589074,1.14014252 11.3222486,1.29849565 11.3222486,1.47268409 L11.3222486,1.93190816 C11.3222486,2.16943785 11.5122724,2.3594616 11.7498021,2.3594616 L14.8060174,2.3594616 C15.091053,2.3594616 15.3444181,2.47030879 15.5344418,2.66033254 C15.7244656,2.85035629 15.8353127,3.1037213 15.8353127,3.38875693 L15.8353127,11.2747427 Z" id="Shape"></path>
                            <path d="M8.32937451,3.43626287 C7.25257324,3.43626287 6.27078385,3.87965162 5.57403009,4.57640538 C4.86144101,5.28899446 4.43388757,6.25494854 4.43388757,7.3317498 C4.43388757,8.40855107 4.87727633,9.39034046 5.57403009,10.0870942 C6.28661916,10.7996833 7.25257324,11.2272367 8.32937451,11.2272367 C9.40617577,11.2272367 10.3879652,10.783848 11.0847189,10.0870942 C11.797308,9.37450515 12.2248614,8.40855107 12.2248614,7.3317498 C12.2248614,6.25494854 11.7814727,5.27315914 11.0847189,4.57640538 C10.3879652,3.87965162 9.40617577,3.43626287 8.32937451,3.43626287 Z M10.482977,9.50118765 C9.92874109,10.0395883 9.16864608,10.3879652 8.32937451,10.3879652 C7.49010293,10.3879652 6.73000792,10.0395883 6.17577197,9.50118765 C5.62153603,8.9469517 5.28899446,8.18685669 5.28899446,7.34758511 C5.28899446,6.50831354 5.63737134,5.74821853 6.17577197,5.19398258 C6.73000792,4.63974663 7.49010293,4.30720507 8.32937451,4.30720507 C9.16864608,4.30720507 9.92874109,4.65558195 10.482977,5.19398258 C11.037213,5.74821853 11.3697546,6.50831354 11.3697546,7.34758511 C11.3855899,8.18685669 11.037213,8.9469517 10.482977,9.50118765 Z" id="Shape"></path>
                            <circle id="Oval" cx="13.9667458" cy="4.19635788" r="1"></circle>
                        </g>
                    </g>
                </g>
            </g>
        </g>
    </g>
</svg>