<?xml version="1.0" encoding="UTF-8"?>
<svg width="35px" height="35px" viewBox="0 0 35 35" version="1.1" xmlns="http://www.w3.org/2000/svg" xmlns:xlink="http://www.w3.org/1999/xlink">
    <!-- Generator: Sketch 61.2 (89653) - https://sketch.com -->
    <title>Cat</title>
    <desc>Created with Sketch.</desc>
    <defs>
        <circle id="path-1" cx="17.5" cy="17.5" r="17.5"></circle>
    </defs>
    <g id="Page-1" stroke="none" stroke-width="1" fill="none" fill-rule="evenodd">
        <g id="8---JumpStory14_Searched-result" transform="translate(-362.000000, -262.000000)">
            <g id="Vidoes" transform="translate(359.000000, 259.000000)">
                <g id="Cat" transform="translate(3.000000, 3.000000)">
                    <mask id="mask-2" fill="white">
                        <use xlink:href="#path-1"></use>
                    </mask>
                    <use id="Mask" fill="#F5F5F5" xlink:href="#path-1"></use>
                    <g id="cinema" mask="url(#mask-2)" fill="#4cc9d7" fill-rule="nonzero">
                        <g transform="translate(9.166667, 9.166667)">
                            <path d="M16.3066406,6.2438151 L1.02884115,6.2438151 C0.837174479,6.2438151 0.681608073,6.39938151 0.681608073,6.59104818 L0.681608073,14.9243815 C0.681608073,15.8813151 1.46009115,16.6604818 2.41770833,16.6604818 L14.9177083,16.6604818 C15.8753581,16.6604818 16.6538086,15.8813151 16.6538086,14.9243815 L16.6538086,6.59104818 C16.6538086,6.39934896 16.4983073,6.2438151 16.3066406,6.2438151 Z M15.9594076,14.924349 C15.9594076,15.4986654 15.4920573,15.9660156 14.9177409,15.9660156 L2.41774089,15.9660156 C1.84342448,15.9660156 1.37607422,15.4986654 1.37607422,14.924349 L1.37607422,6.9382487 L15.9594076,6.9382487 L15.9594076,14.924349 Z" id="Shape"></path>
                            <path d="M16.6427409,3.03059896 L16.0517578,0.788248698 C15.9156576,0.243098958 15.358724,-0.0992513021 14.8066406,0.0257486979 L0.816341146,3.34518229 C0.541341146,3.40768229 0.308691406,3.57503255 0.16077474,3.81533203 C0.0128580729,4.05559896 -0.0308919271,4.33893229 0.0385416667,4.61393229 L0.692708333,7.20003255 C0.731608073,7.35696615 0.87327474,7.46184896 1.02880859,7.46184896 C1.05657552,7.46184896 1.08505859,7.45908203 1.11490885,7.45143229 C1.30032552,7.40491536 1.41282552,7.21601563 1.36559245,7.02991536 L1.32740885,6.87923177 L16.3836589,3.45839844 C16.4753255,3.43688151 16.5551758,3.37991536 16.6038086,3.29938151 C16.6531576,3.2188151 16.6663411,3.12158203 16.6427409,3.03059896 Z M1.15732422,6.20559896 L0.711490885,4.44518229 C0.688574219,4.35351563 0.703841146,4.25908203 0.752473958,4.17851563 C0.801790365,4.09866536 0.879557292,4.04309896 0.973990885,4.02086589 L14.9642578,0.702148438 C14.9892578,0.695898438 15.0149414,0.69313151 15.0399414,0.69313151 C15.1955078,0.69313151 15.3392578,0.800065104 15.3788411,0.960481771 L15.8795247,2.85979818 L1.15732422,6.20559896 Z" id="Shape"></path>
                            <path d="M3.96217448,6.27991536 C3.78994141,6.19589844 3.58300781,6.26393229 3.49550781,6.43548177 L2.10660807,9.2132487 C2.02119141,9.38476562 2.090625,9.59309896 2.26217448,9.67923177 C2.31285807,9.70423177 2.36565755,9.71604818 2.41774089,9.71604818 C2.54482422,9.71604818 2.66774089,9.64589844 2.72884115,9.52369792 L4.11774089,6.74593099 C4.20315755,6.57434896 4.13369141,6.36601562 3.96217448,6.27991536 Z" id="Path"></path>
                            <path d="M7.43372396,6.27991536 C7.26220703,6.19589844 7.0538737,6.26393229 6.96774089,6.43548177 L5.57884115,9.2132487 C5.49342448,9.38476562 5.56285807,9.59309896 5.73440755,9.67923177 C5.78509115,9.70423177 5.83789062,9.71604818 5.88997396,9.71604818 C6.01705729,9.71604818 6.13997396,9.64589844 6.20039062,9.52369792 L7.58929036,6.74593099 C7.67467448,6.57434896 7.60524089,6.36601562 7.43372396,6.27991536 Z" id="Path"></path>
                            <path d="M10.9059245,6.27991536 C10.7350911,6.19589844 10.5267578,6.26393229 10.4399414,6.43548177 L9.05104167,9.2132487 C8.965625,9.38476562 9.03505859,9.59309896 9.20660807,9.67923177 C9.25729167,9.70423177 9.31009115,9.71604818 9.36217448,9.71604818 C9.48925781,9.71604818 9.61217448,9.64589844 9.67259115,9.52369792 L11.0614909,6.74593099 C11.1469076,6.57434896 11.0774414,6.36601562 10.9059245,6.27991536 Z" id="Path"></path>
                            <path d="M14.3781576,6.27991536 C14.2059245,6.19589844 13.9989909,6.26393229 13.9121745,6.43548177 L12.5232747,9.2132487 C12.4378581,9.38476562 12.5072917,9.59309896 12.6788411,9.67923177 C12.7295247,9.70423177 12.7823242,9.71604818 12.8344076,9.71604818 C12.9614909,9.71604818 13.0844076,9.64589844 13.1448242,9.52369792 L14.533724,6.74593099 C14.6191081,6.57434896 14.5496745,6.36601562 14.3781576,6.27991536 Z" id="Path"></path>
                            <path d="M16.3066406,9.02158203 L1.02884115,9.02158203 C0.837174479,9.02158203 0.681608073,9.17714844 0.681608073,9.3688151 C0.681608073,9.56048177 0.837174479,9.71604818 1.02884115,9.71604818 L16.3066406,9.71604818 C16.4989909,9.71604818 16.6538737,9.56048177 16.6538737,9.3688151 C16.6538737,9.17714844 16.4983073,9.02158203 16.3066406,9.02158203 Z" id="Path"></path>
                            <path d="M4.38649089,5.6375651 L1.99482422,3.24589844 C1.85940755,3.11048177 1.63925781,3.11048177 1.50384115,3.24589844 C1.36842448,3.3813151 1.36842448,3.60146484 1.50384115,3.73688151 L3.89550781,6.12923177 C3.96357422,6.19658203 4.05244141,6.23063151 4.14134115,6.23063151 C4.23024089,6.23063151 4.31910807,6.19661458 4.38649089,6.12854818 C4.52190755,5.99309896 4.52190755,5.77298177 4.38649089,5.6375651 Z" id="Path"></path>
                            <path d="M7.78369141,4.86601562 L5.38997396,2.47434896 C5.25455729,2.33893229 5.03440755,2.33893229 4.89899089,2.47434896 C4.76357422,2.60976562 4.76357422,2.82991536 4.89899089,2.96533203 L7.29205729,5.3569987 C7.3601237,5.42434896 7.44899089,5.45839844 7.53789062,5.45839844 C7.62679036,5.45839844 7.71565755,5.42438151 7.78372396,5.3569987 C7.91914063,5.22158203 7.91914063,5.00143229 7.78369141,4.86601562 Z" id="Path"></path>
                            <path d="M11.1781576,4.0944987 L8.78857422,1.70214844 C8.65315755,1.56673177 8.43300781,1.56673177 8.29759115,1.70214844 C8.16217448,1.8375651 8.16217448,2.05771484 8.29759115,2.19313151 L10.6871745,4.58548177 C10.7552409,4.65283203 10.8441081,4.68688151 10.9330078,4.68688151 C11.0219076,4.68688151 11.1107747,4.65354818 11.1781576,4.58548177 C11.3135742,4.4500651 11.3135742,4.22991536 11.1781576,4.0944987 Z" id="Path"></path>
                            <path d="M14.571224,3.32366536 L12.1809245,0.931315104 C12.0455078,0.795898438 11.8253581,0.795898438 11.6899414,0.931315104 C11.5545247,1.06673177 11.5545247,1.28688151 11.6899414,1.42229818 L14.0802083,3.81464844 C14.1482747,3.8819987 14.2371419,3.91604818 14.3260417,3.91604818 C14.4149414,3.91604818 14.5038086,3.88203125 14.5711914,3.81464844 C14.7066406,3.67923177 14.7066406,3.45908203 14.571224,3.32366536 Z" id="Path"></path>
                        </g>
                    </g>
                </g>
            </g>
        </g>
    </g>
</svg>