<?xml version="1.0" encoding="UTF-8"?>
<svg width="35px" height="35px" viewBox="0 0 35 35" version="1.1" xmlns="http://www.w3.org/2000/svg" xmlns:xlink="http://www.w3.org/1999/xlink">
    <!-- Generator: Sketch 61.2 (89653) - https://sketch.com -->
    <title>Cat</title>
    <desc>Created with Sketch.</desc>
    <defs>
        <circle id="path-1" cx="17.5" cy="17.5" r="17.5"></circle>
    </defs>
    <g id="Page-1" stroke="none" stroke-width="1" fill="none" fill-rule="evenodd">
        <g id="8---JumpStory14_Searched-result" transform="translate(-505.000000, -262.000000)">
            <g id="Illustrations" transform="translate(502.000000, 259.000000)">
                <g id="Cat" transform="translate(3.000000, 3.000000)">
                    <mask id="mask-2" fill="white">
                        <use xlink:href="#path-1"></use>
                    </mask>
                    <use id="Mask" fill="#F5F5F5" xlink:href="#path-1"></use>
                    <g id="edit" mask="url(#mask-2)" fill="#4cc9d7" fill-rule="nonzero">
                        <g transform="translate(9.166667, 9.166667)">
                            <path d="M15.3644214,10.4051682 C15.1354231,10.4051682 14.9498277,10.5907636 14.9498277,10.8197619 L14.9498277,14.5009005 C14.9490179,15.1875713 14.3927174,15.7440337 13.7060466,15.7446816 L2.07296849,15.7446816 C1.38629768,15.7440337 0.829997139,15.1875713 0.829187396,14.5009005 L0.829187396,3.69700974 C0.829997139,3.01050087 1.38629768,2.45403839 2.07296849,2.45322865 L5.75410705,2.45322865 C5.98310531,2.45322865 6.16870075,2.26763317 6.16870075,2.03863495 C6.16870075,1.80979867 5.98310531,1.62404125 5.75410705,1.62404125 L2.07296849,1.62404125 C0.928625124,1.62533686 0.00129560531,2.55266633 0,3.69700974 L0,14.5010624 C0.00129560531,15.6454058 0.928625124,16.5727353 2.07296849,16.5740309 L13.7060466,16.5740309 C14.85039,16.5727353 15.7777195,15.6454058 15.7790151,14.5010624 L15.7790151,10.8197619 C15.7790151,10.5907636 15.5934196,10.4051682 15.3644214,10.4051682 Z" id="Path"></path>
                            <path d="M15.6147971,0.557272222 C14.8861811,-0.171343781 13.7049129,-0.171343781 12.9762969,0.557272222 L5.57968619,7.95388292 C5.52899565,8.00457347 5.49239478,8.06741036 5.47328462,8.13640133 L4.50060896,11.6479776 C4.46060713,11.7919517 4.50125672,11.9461287 4.60684859,12.0518825 C4.71260236,12.1574743 4.86677939,12.198124 5.01075352,12.1582841 L8.52232977,11.1854465 C8.59132073,11.1663363 8.65415759,11.1297354 8.70484818,11.0790449 L16.1012969,3.68227222 C16.8287793,2.95317036 16.8287793,1.77287392 16.1012969,1.04377201 L15.6147971,0.557272222 Z M6.48304701,8.22336882 L12.5366008,2.16965303 L14.4889161,4.12196828 L8.43520029,10.1756841 L6.48304701,8.22336882 Z M6.09306982,9.00591443 L7.65281667,10.5658232 L5.49530991,11.1635831 L6.09306982,9.00591443 Z M15.5150355,3.09601082 L15.0753395,3.53570688 L13.1228623,1.58322968 L13.5627202,1.14353362 C13.967435,0.738818905 14.623659,0.738818905 15.0283738,1.14353362 L15.5150355,1.63003342 C15.9191024,2.035234 15.9191024,2.69097222 15.5150355,3.09601082 L15.5150355,3.09601082 Z" id="Shape"></path>
                        </g>
                    </g>
                </g>
            </g>
        </g>
    </g>
</svg>