<svg xmlns="http://www.w3.org/2000/svg" viewBox="0 0 48 48"><defs><style>.cls-1{fill:#fff;}</style></defs><g id="Layer_2" data-name="Layer 2"><g id="Layer_1-2" data-name="Layer 1"><path class="cls-1" d="M41.21,14.94H33.06V6.8A6.8,6.8,0,0,0,26.28,0H6.8A6.81,6.81,0,0,0,0,6.8V26.28a6.8,6.8,0,0,0,6.8,6.78h8.14v8.15A6.79,6.79,0,0,0,21.72,48H41.21A6.8,6.8,0,0,0,48,41.21V21.71A6.79,6.79,0,0,0,41.21,14.94ZM14.94,21.72v8.15H6.32A3.12,3.12,0,0,1,3.2,26.75V6.32A3.12,3.12,0,0,1,6.32,3.2H26.75a3.12,3.12,0,0,1,3.12,3.12v8.62H21.72A6.77,6.77,0,0,0,14.94,21.72Zm29.86,20a3.12,3.12,0,0,1-3.11,3.11H21.24a3.11,3.11,0,0,1-3.11-3.11V21.32a3.11,3.11,0,0,1,3.17-3.19H41.69a3.11,3.11,0,0,1,3.11,3.11Z"/></g></g></svg>