<svg xmlns="http://www.w3.org/2000/svg" viewBox="0 0 48 43.39"><defs><style>.cls-1{fill:#fff;}</style></defs><g id="Layer_2" data-name="Layer 2"><g id="Layer_1-2" data-name="Layer 1"><path class="cls-1" d="M42.3,20V5.15A5.16,5.16,0,0,0,37.15,0h-32A5.16,5.16,0,0,0,0,5.15V31.39a5.15,5.15,0,0,0,5.15,5.14H24a12.7,12.7,0,0,0,11.3,6.86,13.46,13.46,0,0,0,2.27-.19A12.74,12.74,0,0,0,42.3,20ZM22.59,30.71a12.67,12.67,0,0,0,.4,3.16H5.09a2.44,2.44,0,0,1-2.44-2.42V5.09A2.45,2.45,0,0,1,5.09,2.65H37.21a2.44,2.44,0,0,1,2.43,2.44V18.68a12.45,12.45,0,0,0-4.3-.76,14.17,14.17,0,0,0-2.09.18l-3.57-2.91a.68.68,0,0,0-.14-.09l-.1,0-.09,0L29.2,15h-.07a.63.63,0,0,0-.19,0h-.25l-.13,0-.15,0-.08,0-.18.09-4.9,2.82-5.91-5.52a1.25,1.25,0,0,0-.39-.24l-.07,0a1.48,1.48,0,0,0-.52-.07,1.4,1.4,0,0,0-.44.1l-.06,0a1.33,1.33,0,0,0-.31.18L4.19,22.06a1.36,1.36,0,0,0,.86,2.43,1.32,1.32,0,0,0,.88-.33L16.4,15.24l8.59,8A12.69,12.69,0,0,0,22.59,30.71Zm7.22-11.9A13.12,13.12,0,0,0,26.55,21L25.1,19.61l3.33-1.92ZM35,40.3A10,10,0,1,1,45,30.35,10,10,0,0,1,35,40.3Z"/><path class="cls-1" d="M8.52,4.44a3.77,3.77,0,1,0,3.76,3.77A3.77,3.77,0,0,0,8.52,4.44Zm0,5.28A1.51,1.51,0,1,1,10,8.21,1.52,1.52,0,0,1,8.52,9.72Z"/><path class="cls-1" d="M34.81,36.65l0,.26-.07,0a.35.35,0,0,1-.12-.07l.14-.2Z"/><path class="cls-1" d="M35.58,36.93l0,0-.06,0h0a.83.83,0,0,1-.22,0h0A.83.83,0,0,1,35,37h0l-.06,0,0,0h0l.1-.22.17.05a1,1,0,0,0,.34,0l.09,0Z"/><path class="cls-1" d="M35.6,36.92h0l-.11-.22-.09,0a1,1,0,0,1-.34,0l-.17-.05-.1.22h0v.26l.14,0a1.27,1.27,0,0,0,.28,0,1.19,1.19,0,0,0,.33,0l.13,0Zm-.88-.32-.14.2a.35.35,0,0,0,.12.07l.07,0,0-.26Z"/><path class="cls-1" d="M40.41,33.17,36,37a.54.54,0,0,1-.16.1l-.08,0-.14-.22h0l-.11-.22-.09,0a1,1,0,0,1-.34,0l-.17-.05-.1.22,0-.26-.09,0-.14.2a.35.35,0,0,0,.12.07l.07,0h0l-.08.24-.06,0-.07,0-.15-.1-.11-.08L30,33.17a1.39,1.39,0,0,1-.16-1.9,1.3,1.3,0,0,1,1.88-.17L33.87,33v-7.8a1.36,1.36,0,0,1,1.34-1.35,1.34,1.34,0,0,1,1.32,1.35V33l2.15-1.87a1.36,1.36,0,0,1,1-.32,1.26,1.26,0,0,1,.91.49A1.38,1.38,0,0,1,40.41,33.17Z"/></g></g></svg>